<svg id="Layer_1" data-name="Layer 1" xmlns="http://www.w3.org/2000/svg" viewBox="0 0 478 99.7">
  <defs>
    <style>
      .cls-3{stroke:#2e3191;stroke-miterlimit:10;fill:none;stroke-width:3px}
    </style>
  </defs>
  <path id="Triangle" class="cls-3" d="m327.5 1.5-89 95.9-86-95.9h175z"/>
  <text transform="translate(218 66.3)" style="stroke:#2e3191;stroke-miterlimit:10;fill:#f1f1f2;font-family:Rockwell-ExtraBold,'Rockwell Extra Bold';font-size:40px;stroke-width:.75px"><tspan x="0" y="0">W</tspan></text>
  <path class="cls-3" d="m325.5 1.5-22 24-21 24-20.2 24-23.3 24h148.3a24.3 24.3 0 0 0 24.6-24s-1.3 0-1.3 0a24.3 24.3 0 0 0 24.6-24s-4.4 0-4.4 0a24.3 24.3 0 0 0 24.6-24s-3.5 0-3.5 0a24.3 24.3 0 0 0 24.6-24s-151 0-151 0Zm58.4 71-15-11-15 11 5.9-17.6-15-10.9 18.5.1 5.6-17.7 5.7 17.7h18.6L378 54.8l5.8 17.6Zm-188.4-23-21-24-22-24H1.5c0 13.2 11 24 24.6 24h-3.5c0 13.2 11 24 24.6 24h-4.4c0 13.2 11 24 24.6 24H66c0 13.2 11 24 24.6 24H239l-23.3-24-20.2-24ZM84.8 44l18.6.1 5.6-17.7 5.7 17.7h18.6l-15.1 10.8 5.8 17.6-15-11-15 11 5.9-17.6-15-10.9Z" id="Wing"/>
  <path d="M216.7 79.8c-1.5-3.5-9.3-7-10.7-8.4-1-1 1.2 5.5.3 8.4-1.1 4-4.8 4.6-5.7 7.6-1.4 4.6 4.8 9.7 6.9 9.4 1.5-.3-3.1-1.3 3.6-5 4.2-2.4 4.5-5.4 5.9-8.4.3-.7.6-1.7-.3-3.6Zm-5.1 4.4c-.4 1.1-4.6 4.6-5 5-1.2 1.6-1.2 1.2-1.7 2.5-.8 2.6-.7 2.5-1.1 2.5-.6 0-1.2-4 .7-6.6 1.2-1.6 2.2-2.7 4-4 1.2-.8 1-4.3.9-5.7-.2-.3-.2-.5-.2-.7l.2.7c.6 1.4 2.8 4.5 2.2 6.3Zm130-4.4c-1.6-3.5-9.4-7-10.8-8.4-1-1 1.2 5.5.4 8.4-1.2 4-4.8 4.6-5.8 7.6-1.4 4.6 4.9 9.7 7 9.4 1.4-.3-3.1-1.3 3.5-5 4.2-2.4 4.6-5.4 6-8.4.2-.7.5-1.7-.3-3.6Zm-5.2 4.4c-.4 1.1-4.6 4.6-4.9 5-1.2 1.6-1.3 1.2-1.7 2.5-.9 2.6-.7 2.5-1.2 2.5-.6 0-1.1-4 .7-6.6 1.2-1.6 2.2-2.7 4-4 1.3-.8 1.1-4.3 1-5.7-.2-.3-.3-.5-.2-.7l.1.7c.7 1.4 2.9 4.5 2.3 6.3Zm-57.2-4.4c-1.6-3.5-9.4-7-10.8-8.4-1-1 1.2 5.5.4 8.4-1.2 4-4.9 4.6-5.8 7.6-1.4 4.6 4.9 9.7 7 9.4 1.4-.3-3.2-1.3 3.5-5 4.2-2.4 4.6-5.4 6-8.4.2-.7.5-1.7-.3-3.6Zm-5.2 4.4c-.4 1.1-4.6 4.6-4.9 5-1.3 1.6-1.3 1.2-1.7 2.5-.9 2.6-.7 2.5-1.2 2.5-.6 0-1.1-4 .7-6.6 1.2-1.6 2.2-2.7 4-4 1.3-.8 1.1-4.3.9-5.7l-.2-.7.2.7c.6 1.4 2.9 4.5 2.2 6.3Zm-119.7-4.4c-1.5-3.5-9.3-7-10.8-8.4-1-1 1.2 5.5.4 8.4-1.2 4-4.8 4.6-5.8 7.6-1.4 4.6 4.9 9.7 7 9.4 1.4-.3-3.1-1.3 3.5-5 4.2-2.4 4.6-5.4 6-8.4.2-.7.5-1.7-.3-3.6Zm-5.1 4.4c-.5 1.1-4.7 4.6-5 5-1.2 1.6-1.2 1.2-1.7 2.5-.9 2.6-.7 2.5-1.1 2.5-.6 0-1.2-4 .6-6.6 1.3-1.6 2.3-2.7 4-4 1.3-.8 1.2-4.3 1-5.7-.2-.3-.3-.5-.2-.7l.1.7c.7 1.4 3 4.5 2.3 6.3Z" style="stroke:#2e3191;stroke-miterlimit:10;stroke-width:.5px;fill:none" id="Flame"/>
</svg>
